<svg width="100" height="100" viewBox="0 0 100 100" fill="none" xmlns="http://www.w3.org/2000/svg">
<path d="M26.5213 46.2879C26.6604 46.4203 26.7713 46.5788 26.8476 46.754C26.9238 46.9292 26.9639 47.1176 26.9654 47.3083C26.9669 47.499 26.9298 47.6881 26.8564 47.8644C26.7829 48.0408 26.6745 48.2009 26.5376 48.3354C26.4006 48.4699 26.2378 48.5761 26.0587 48.6477C25.8797 48.7194 25.6879 48.755 25.4947 48.7526C25.3015 48.7502 25.1107 48.7097 24.9335 48.6336C24.7563 48.5575 24.5963 48.4473 24.4629 48.3094L5.42364 29.445C5.15173 29.1757 4.99935 28.8109 5 28.4308C5.00066 28.0507 5.1543 27.6864 5.42714 27.4181C5.69998 27.1497 6.06965 26.9994 6.45484 27C6.84004 27.0006 7.20919 27.1523 7.4811 27.4215L26.5213 46.2879ZM92.536 27.4225L50.0106 69.5458L31.9896 51.7029C31.7176 51.4337 31.3485 51.282 30.9633 51.2814C30.5781 51.2807 30.2084 51.4311 29.9356 51.6994C29.6628 51.9678 29.5091 52.3321 29.5085 52.7122C29.5078 53.0923 29.6602 53.4571 29.9321 53.7263L48.9823 72.579C49.1172 72.7124 49.2775 72.8183 49.4539 72.8906C49.6304 72.9628 49.8195 73 50.0106 73C50.2016 73 50.3907 72.9628 50.5672 72.8906C50.7436 72.8183 50.9039 72.7124 51.0388 72.579L94.5975 29.445C94.8601 29.1739 95.0045 28.8121 94.9999 28.4371C94.9952 28.0621 94.8419 27.7039 94.5726 27.4392C94.3034 27.1746 93.9398 27.0246 93.5598 27.0215C93.1798 27.0183 92.8137 27.1623 92.54 27.4225H92.536Z" fill="black"/>
</svg>
