<svg width="100" height="100" viewBox="0 0 100 100" fill="none" xmlns="http://www.w3.org/2000/svg">
<path d="M94.92 23.4373C94.9197 23.8191 94.7669 24.1852 94.4951 24.455C94.2233 24.7249 93.8547 24.8765 93.4705 24.8765H75.0115C74.6408 24.8572 74.2917 24.6972 74.0361 24.4296C73.7806 24.162 73.6381 23.8072 73.6381 23.4383C73.6381 23.0694 73.7806 22.7145 74.0361 22.4469C74.2917 22.1793 74.6408 22.0194 75.0115 22H93.4705C93.8544 22 94.2226 22.1513 94.4944 22.4208C94.7661 22.6902 94.9192 23.0558 94.92 23.4373ZM5.07605 23.4373C5.07632 23.8191 5.22915 24.1852 5.50095 24.455C5.77275 24.7249 6.14128 24.8765 6.52553 24.8765H67.5515C67.9223 24.8572 68.2714 24.6972 68.5269 24.4296C68.7825 24.162 68.9249 23.8072 68.9249 23.4383C68.9249 23.0694 68.7825 22.7145 68.5269 22.4469C68.2714 22.1793 67.9223 22.0194 67.5515 22H6.52553C6.14163 22 5.7734 22.1513 5.50165 22.4208C5.22991 22.6902 5.07684 23.0558 5.07605 23.4373ZM93.4705 48.5573H6.52553C6.15478 48.5766 5.80564 48.7366 5.5501 49.0042C5.29456 49.2718 5.1521 49.6266 5.1521 49.9955C5.1521 50.3644 5.29456 50.7193 5.5501 50.9869C5.80564 51.2545 6.15478 51.4144 6.52553 51.4338H93.4745C93.8452 51.4144 94.1944 51.2545 94.4499 50.9869C94.7054 50.7193 94.8479 50.3644 94.8479 49.9955C94.8479 49.6266 94.7054 49.2718 94.4499 49.0042C94.1944 48.7366 93.8452 48.5766 93.4745 48.5573H93.4705ZM93.4705 75.1215H6.52553C6.32905 75.1112 6.13252 75.1408 5.94793 75.2085C5.76333 75.2761 5.59452 75.3804 5.45179 75.515C5.30907 75.6495 5.1954 75.8116 5.11773 75.9912C5.04006 76.1708 5 76.3643 5 76.5598C5 76.7553 5.04006 76.9487 5.11773 77.1283C5.1954 77.3079 5.30907 77.47 5.45179 77.6045C5.59452 77.7391 5.76333 77.8434 5.94793 77.911C6.13252 77.9787 6.32905 78.0083 6.52553 77.998H93.4745C93.671 78.0083 93.8675 77.9787 94.0521 77.911C94.2367 77.8434 94.4055 77.7391 94.5482 77.6045C94.6909 77.47 94.8046 77.3079 94.8823 77.1283C94.9599 76.9487 95 76.7553 95 76.5598C95 76.3643 94.9599 76.1708 94.8823 75.9912C94.8046 75.8116 94.6909 75.6495 94.5482 75.515C94.4055 75.3804 94.2367 75.2761 94.0521 75.2085C93.8675 75.1408 93.671 75.1112 93.4745 75.1215H93.4705Z" fill="black"/>
</svg>
