<svg width="100" height="100" viewBox="0 0 100 100" fill="none" xmlns="http://www.w3.org/2000/svg">
<path d="M50.709 50.5243C39.745 50.5243 30.825 41.6592 30.825 30.7626C30.825 19.8651 39.745 11 50.709 11C61.674 11 70.593 19.8651 70.593 30.7626C70.593 41.6592 61.673 50.5243 50.709 50.5243ZM50.709 13.8851C41.346 13.8851 33.728 21.4563 33.728 30.7616C33.728 40.067 41.346 47.6381 50.709 47.6381C60.073 47.6381 67.69 40.067 67.69 30.7616C67.69 21.4563 60.072 13.8851 50.709 13.8851ZM95 87.5559V82.7954C95 74.5157 89.737 67.0748 81.904 64.2801L68.046 59.3277C56.409 55.1645 43.591 55.1645 31.954 59.3277L18.097 64.2791C10.263 67.0748 5 74.5157 5 82.7954V87.5569C5 88.353 5.65 89 6.452 89H63.084C63.885 89 64.536 88.354 64.536 87.5569C64.536 86.7609 63.886 86.1139 63.084 86.1139H7.903V82.7954C7.903 75.7292 12.393 69.3805 19.078 66.9943L32.936 62.0419C43.939 58.1083 56.06 58.1083 67.063 62.0419L80.922 66.9953C87.605 69.3805 92.096 75.7292 92.096 82.7954V86.1139H74.659C73.858 86.1139 73.207 86.7599 73.207 87.5569C73.207 88.353 73.857 89 74.659 89H93.549C94.35 88.999 95 88.353 95 87.5559Z" fill="#010101"/>
</svg>
